# xmcd CD database file
#
# Track frame offsets:
#	150
#	26860
#	61330
#
# Disc length: 1202 seconds
#
# Revision: 0
# Processed by: cddbd v1.5.1PL0 Copyright (c) Steve Scherf et al.
# Submitted via: CDex 1.51
#
DISCID=2204b003
DTITLE=bird - マーメイド3000
DYEAR=2001
DGENRE=JPop
TTITLE0=マーメイド3000 （Single Edit）
TTITLE1=マーメイド3000 （Rascal Mix）
TTITLE2=マーメイド3000 （Instrumental）
EXTD=YEAR: 2001
EXTT0=
EXTT1=
EXTT2=
PLAYORDER=
